<svg width="512" height="512" viewBox="0 0 512 512" fill="none" xmlns="http://www.w3.org/2000/svg">
<g clip-path="url(#clip0_1_478)">
<path d="M0 185.295C0 120.436 0 88.0061 12.6225 63.2331C23.7255 41.4421 41.4421 23.7255 63.2331 12.6225C88.0061 0 120.436 0 185.295 0H326.705C391.564 0 423.994 0 448.767 12.6225C470.558 23.7255 488.275 41.4421 499.378 63.2331C512 88.0061 512 120.436 512 185.295V326.705C512 391.564 512 423.994 499.378 448.767C488.275 470.558 470.558 488.275 448.767 499.378C423.994 512 391.564 512 326.705 512H185.295C120.436 512 88.0061 512 63.2331 499.378C41.4421 488.275 23.7255 470.558 12.6225 448.767C0 423.994 0 391.564 0 326.705V185.295Z" fill="#330000"/>
<path d="M248.108 321.76H168.767L152.625 373.192C152.176 375.103 150.417 376.457 148.503 376.363H108.317C106.026 376.363 105.224 375.071 105.913 372.488L174.606 169.578C175.293 167.465 175.981 165.058 176.667 162.356C177.566 157.656 178.026 152.879 178.041 148.09C177.844 146.675 179.088 145.425 180.446 145.623H235.056C236.656 145.623 237.572 146.211 237.804 147.385L315.772 372.84C316.458 375.19 315.771 376.365 313.71 376.363H269.059C267.493 376.541 265.998 375.467 265.625 373.897L248.108 321.76ZM181.132 277.374H235.4C226.484 246.907 216.422 216.84 208.266 186.135C199.467 216.892 189.867 247.524 181.132 277.374Z" fill="#FF9A00"/>
<path d="M362.135 182.964C358.632 183.108 355.138 182.492 351.883 181.157C348.628 179.821 345.684 177.796 343.244 175.214C340.811 172.519 338.922 169.358 337.684 165.912C336.446 162.466 335.884 158.803 336.031 155.134C335.906 151.501 336.53 147.882 337.862 144.513C339.193 141.144 341.203 138.101 343.759 135.583C346.291 133.091 349.279 131.138 352.551 129.838C355.823 128.538 359.314 127.916 362.822 128.009C371.065 128.009 377.534 130.534 382.228 135.583C384.597 138.207 386.438 141.284 387.647 144.639C388.855 147.994 389.406 151.56 389.268 155.134C389.412 158.818 388.832 162.493 387.564 165.943C386.295 169.392 384.364 172.545 381.884 175.214C379.292 177.834 376.2 179.875 372.801 181.209C369.402 182.543 365.77 183.14 362.135 182.964ZM338.435 372.839V204.452C338.435 202.339 339.348 201.281 341.183 201.281H383.43C385.26 201.281 386.176 202.338 386.178 204.452V372.839C386.178 375.189 385.262 376.363 383.43 376.362H341.527C339.466 376.362 338.436 375.187 338.435 372.839Z" fill="#FF9A00"/>
</g>
<defs>
<clipPath id="clip0_1_478">
<rect width="512" height="512" fill="white"/>
</clipPath>
</defs>
</svg>
