<svg width="512" height="512" viewBox="0 0 512 512" fill="none" xmlns="http://www.w3.org/2000/svg">
<g clip-path="url(#clip0_1_494)">
<path d="M0 185.295C0 120.436 0 88.0061 12.6225 63.2331C23.7255 41.4421 41.4421 23.7255 63.2331 12.6225C88.0061 0 120.436 0 185.295 0H326.705C391.564 0 423.994 0 448.767 12.6225C470.558 23.7255 488.275 41.4421 499.378 63.2331C512 88.0061 512 120.436 512 185.295V326.705C512 391.564 512 423.994 499.378 448.767C488.275 470.558 470.558 488.275 448.767 499.378C423.994 512 391.564 512 326.705 512H185.295C120.436 512 88.0061 512 63.2331 499.378C41.4421 488.275 23.7255 470.558 12.6225 448.767C0 423.994 0 391.564 0 326.705V185.295Z" fill="#000B1D"/>
<path d="M192.226 383.97C171.799 384.353 150.272 381.054 131.612 372.185C129.705 371.312 128.857 369.348 128.857 366.293V324.389C128.857 322.609 130.325 321.614 131.824 322.644C150.201 334.419 171.834 340.976 193.498 340.976C207.076 340.976 229.527 338.3 229.527 319.588C229.527 296.992 197.016 289.539 181.205 282.705C151.863 269.689 128.009 250.584 128.009 215.267C127.585 189.95 141.997 166.598 164.462 156.341C191.77 143.02 234.958 142.848 262.801 156.341C264.285 157.214 265.344 158.96 265.132 160.924V200.644C265.132 202.395 263.32 202.845 262.165 201.954C246.076 193.67 227.781 189.758 209.817 190.169C198.677 190.169 181.738 191.489 175.695 203.045C163.993 227.145 202.701 238.895 219.142 245.385C249.302 258.07 277.213 278.606 277.213 315.66C277.99 363.675 231.89 383.97 192.226 383.97Z" fill="white"/>
<path d="M392.931 345.561V374.37C392.931 376.988 392.083 378.516 390.176 378.953C352.143 392.007 312.819 378.74 312.819 333.558V246.041H292.261C290.353 246.041 289.505 244.95 289.505 242.986L289.717 208.285C289.717 206.32 290.777 205.448 292.685 205.448H313.242C314.002 191.367 314.823 177.308 316.633 163.326C317.068 161.982 318.041 160.515 319.389 160.052L360.081 154.815C361.818 154.218 362.412 155.342 362.412 156.997C361.153 173.196 361.322 189.433 360.928 205.666H391.023C392.295 205.666 393.143 206.539 393.143 208.503L392.931 243.859C393.143 244.95 392.295 246.041 391.235 246.259H361.14V321.991C361.14 329.847 361.988 335.74 364.531 339.014C370.017 346.074 382.26 344.284 390.176 343.379C391.79 342.825 392.931 343.938 392.931 345.561Z" fill="white"/>
</g>
<defs>
<clipPath id="clip0_1_494">
<rect width="512" height="512" fill="white"/>
</clipPath>
</defs>
</svg>
