<svg width="512" height="512" viewBox="0 0 512 512" fill="none" xmlns="http://www.w3.org/2000/svg">
<g clip-path="url(#clip0_1_479)">
<path d="M0 185.295C0 120.436 0 88.0061 12.6225 63.2331C23.7255 41.4421 41.4421 23.7255 63.2331 12.6225C88.0061 0 120.436 0 185.295 0H326.705C391.564 0 423.994 0 448.767 12.6225C470.558 23.7255 488.275 41.4421 499.378 63.2331C512 88.0061 512 120.436 512 185.295V326.705C512 391.564 512 423.994 499.378 448.767C488.275 470.558 470.558 488.275 448.767 499.378C423.994 512 391.564 512 326.705 512H185.295C120.436 512 88.0061 512 63.2331 499.378C41.4421 488.275 23.7255 470.558 12.6225 448.767C0 423.994 0 391.564 0 326.705V185.295Z" fill="#001E36"/>
<path d="M109.714 375.154V150.005C109.714 148.474 110.354 147.599 111.848 147.599C133.893 147.599 155.929 146.286 177.981 146.286C213.763 146.286 252.507 158.521 266.088 195.954C269.288 205.144 270.994 214.552 270.994 224.399C270.994 243.216 266.728 258.751 258.194 271.004C234.357 305.231 193.042 304.699 156.008 304.699V374.935C156.297 377.015 154.525 377.999 152.808 377.999H112.274C110.568 377.999 109.714 377.123 109.714 375.154ZM156.221 189.828V263.346C170.905 264.421 186.272 264.538 200.381 259.845C215.957 255.352 224.488 241.868 224.488 225.711C224.921 211.944 217.419 198.734 204.648 193.766C190.708 187.97 171.268 187.623 156.221 189.828Z" fill="#31A8FF"/>
<path d="M404.053 248.821C397.598 245.419 390.724 242.93 383.617 241.423C374.484 239.274 338.465 231.748 338.451 250.582C338.771 261.097 355.462 266.248 362.837 269.252C388.726 278.141 418.024 294.029 417.448 325.968C418.24 365.729 379.716 381.624 346.694 381.628C329.503 381.806 311.594 379.143 295.861 371.764C294.359 370.969 293.392 369.268 293.456 367.536V329.491C293.287 327.966 294.924 326.632 296.204 327.73C311.62 337.052 329.891 341.578 347.724 341.82C355.596 341.82 371.199 341.057 371.08 329.491C371.08 318.391 352.416 313.288 344.976 310.468C334.192 306.618 323.966 301.285 314.579 294.616C301.462 285.259 293.233 270.257 293.457 253.752C293.38 216.314 328.841 199.51 360.776 199.502C375.706 199.379 391.738 200.485 405.635 206.548C407.634 207.136 408.048 209.241 408.04 211.127V246.707C408.167 248.915 405.714 249.667 404.053 248.821Z" fill="#31A8FF"/>
</g>
<defs>
<clipPath id="clip0_1_479">
<rect width="512" height="512" fill="white"/>
</clipPath>
</defs>
</svg>
