<svg width="512" height="512" viewBox="0 0 512 512" fill="none" xmlns="http://www.w3.org/2000/svg">
<g clip-path="url(#clip0_1_428)">
<path d="M0 185.295C0 120.436 0 88.0061 12.6225 63.2331C23.7255 41.4421 41.4421 23.7255 63.2331 12.6225C88.0061 0 120.436 0 185.295 0H326.705C391.564 0 423.994 0 448.767 12.6225C470.558 23.7255 488.275 41.4421 499.378 63.2331C512 88.0061 512 120.436 512 185.295V326.705C512 391.564 512 423.994 499.378 448.767C488.275 470.558 470.558 488.275 448.767 499.378C423.994 512 391.564 512 326.705 512H185.295C120.436 512 88.0061 512 63.2331 499.378C41.4421 488.275 23.7255 470.558 12.6225 448.767C0 423.994 0 391.564 0 326.705V185.295Z" fill="#00005B"/>
<path d="M215.58 321.168H136.239L120.096 372.698C119.648 374.609 117.888 375.962 115.974 375.868H75.7891C73.4974 375.868 72.696 374.577 73.3848 371.993L142.077 169.922C142.765 167.809 143.451 165.743 144.139 163.04C145.037 158.34 145.497 153.563 145.513 148.774C145.316 147.358 146.537 146.106 147.917 146.307H202.527C204.128 146.307 205.043 146.895 205.275 148.069L283.243 372.345C283.93 374.696 283.242 375.87 281.182 375.868H236.531C234.965 376.046 233.469 374.973 233.096 373.403L215.58 321.168ZM148.604 277.718H202.871C193.955 247.251 183.893 217.184 175.738 186.48C166.496 218.33 157.963 247.869 148.604 277.718Z" fill="#9999FF"/>
<path d="M341.23 301.27C344.387 327.435 366.359 339.91 390.689 339.378C404.408 339.108 419.07 336.979 431.889 331.791C433.032 330.856 433.607 331.439 433.607 333.553V367.019C433.715 368.76 432.987 370.315 431.545 371.246C415.612 378.484 397.322 380.666 380.041 380.389C328.515 380.389 293.13 344.084 293.144 291.264C293.01 241.209 325.483 198.979 375.919 198.979C418.672 197.871 448.272 232.101 448.391 274.707C448.391 282.468 447.958 290.254 447.017 297.957C446.835 299.544 445.483 300.776 443.925 300.776C409.78 300.776 375.468 301.27 341.23 301.27ZM341.23 269.179C360.259 269.179 379.398 269.851 398.416 269.003C401.275 268.71 403.397 268.168 403.397 265.196C403 249.4 389.671 236.41 374.203 237.014C355.513 235.855 343.553 251.631 341.23 269.179Z" fill="#9999FF"/>
</g>
<defs>
<clipPath id="clip0_1_428">
<rect width="512" height="512" fill="white"/>
</clipPath>
</defs>
</svg>
