<svg width="512" height="512" viewBox="0 0 512 512" fill="none" xmlns="http://www.w3.org/2000/svg">
<g clip-path="url(#clip0_1_437)">
<path d="M0 185.295C0 120.436 0 88.0061 12.6225 63.2331C23.7255 41.4421 41.4421 23.7255 63.2331 12.6225C88.0061 0 120.436 0 185.295 0H326.705C391.564 0 423.994 0 448.767 12.6225C470.558 23.7255 488.275 41.4421 499.378 63.2331C512 88.0061 512 120.436 512 185.295V326.705C512 391.564 512 423.994 499.378 448.767C488.275 470.558 470.558 488.275 448.767 499.378C423.994 512 391.564 512 326.705 512H185.295C120.436 512 88.0061 512 63.2331 499.378C41.4421 488.275 23.7255 470.558 12.6225 448.767C0 423.994 0 391.564 0 326.705V185.295Z" fill="#00005B"/>
<path d="M109.714 361.978V131.803C109.714 130.237 110.356 129.342 111.854 129.342C133.965 129.342 156.067 128 178.184 128C214.073 128 252.933 140.508 266.554 178.777C269.763 188.172 271.475 197.791 271.475 207.857C271.475 227.094 267.196 242.976 258.637 255.502C234.729 290.494 193.291 289.95 156.145 289.95V361.754C156.436 363.88 154.659 364.886 152.936 364.886H112.282C110.57 364.886 109.714 363.991 109.714 361.978ZM156.359 172.514V247.673C171.088 248.773 186.5 248.892 200.651 244.094C216.274 239.501 224.83 225.716 224.83 209.199C225.264 195.124 217.74 181.62 204.931 176.54C190.95 170.615 171.451 170.26 156.359 172.514Z" fill="#9999FF"/>
<path d="M300.48 186.732H338.03C340.101 186.751 341.96 188.246 342.508 190.334C345.26 196.722 345.599 204.424 345.609 211.321C352.048 203.482 359.814 196.951 368.517 192.054C377.851 186.532 388.434 183.733 399.157 183.951C400.937 183.684 402.513 185.331 402.258 187.192V230.768C402.258 232.451 401.106 233.289 398.814 233.289C382.92 232.143 358.175 236.069 346.626 249.135V362.442C346.626 364.603 345.707 365.683 343.87 365.683H303.581C301.602 365.98 299.856 364.118 300.135 362.081V239.052C300.135 222.566 300.477 205.584 298.069 189.254C297.698 187.751 299.074 186.354 300.48 186.732Z" fill="#9999FF"/>
</g>
<defs>
<clipPath id="clip0_1_437">
<rect width="512" height="512" fill="white"/>
</clipPath>
</defs>
</svg>
