<svg width="512" height="512" viewBox="0 0 512 512" fill="none" xmlns="http://www.w3.org/2000/svg">
<path fill-rule="evenodd" clip-rule="evenodd" d="M6 6H506V506H6V6Z" fill="#F7DF1E"/>
<path fill-rule="evenodd" clip-rule="evenodd" d="M137.468 423.837L175.732 400.68C183.114 413.768 189.829 424.842 205.936 424.842C221.375 424.842 231.11 418.802 231.11 395.31V235.548H278.097V395.975C278.097 444.641 249.57 466.793 207.95 466.793C170.362 466.793 148.543 447.325 137.468 423.833" fill="black"/>
<path fill-rule="evenodd" clip-rule="evenodd" d="M303.619 418.802L341.878 396.65C351.949 413.098 365.039 425.179 388.196 425.179C407.665 425.179 420.08 415.445 420.08 402.02C420.08 385.91 407.327 380.203 385.846 370.809L374.102 365.771C340.202 351.341 317.714 333.217 317.714 294.955C317.714 259.714 344.564 232.862 386.519 232.862C416.391 232.862 437.871 243.267 453.308 270.454L416.724 293.947C408.668 279.516 399.945 273.811 386.52 273.811C372.759 273.811 364.032 282.537 364.032 293.947C364.032 308.044 372.759 313.751 392.895 322.478L404.641 327.512C444.581 344.63 467.069 362.081 467.069 401.348C467.069 443.641 433.842 466.797 389.204 466.797C345.572 466.797 317.379 445.989 303.62 418.802" fill="black"/>
</svg>
