<svg width="512" height="512" viewBox="0 0 512 512" fill="none" xmlns="http://www.w3.org/2000/svg">
<path d="M431.543 337.214C435.945 334.686 438.666 330.002 438.682 324.926L438.938 242.619C438.955 237.542 441.676 232.859 446.078 230.331L490.695 204.702C495.095 202.174 500.51 202.184 504.902 204.726C509.294 207.268 512 211.958 512 217.033V366.669C512 371.761 509.276 376.464 504.86 379L336.479 475.714C332.102 478.226 326.723 478.231 322.341 475.728L190.199 400.149C185.768 397.618 183.033 392.907 183.031 387.804V312.353C183.031 312.267 183.13 312.211 183.216 312.253C183.287 312.296 183.386 312.253 183.386 312.154V312.068C183.386 312.011 183.415 311.954 183.472 311.926L292.303 249.403C292.403 249.347 292.36 249.19 292.246 249.19C292.184 249.19 292.133 249.139 292.133 249.076L292.346 175.104C292.366 170.013 289.663 165.299 285.259 162.745C280.855 160.19 275.421 160.185 271.012 162.731L190.128 209.338C185.735 211.868 180.327 211.868 175.934 209.338L94.7938 162.617C90.3942 160.084 84.9779 160.088 80.582 162.627C76.1861 165.167 73.4771 169.857 73.4741 174.934V308.626C73.4775 313.698 70.7804 318.387 66.3953 320.934C62.0102 323.482 56.6005 323.501 52.197 320.986L7.16824 295.243C2.7283 292.707 -0.00853316 287.982 1.99892e-05 282.869L0.398273 49.1917C0.409304 44.1218 3.11828 39.4411 7.50875 36.9059C11.8992 34.3707 17.3073 34.3643 21.7038 36.8891L175.948 125.482C180.334 128.001 185.728 128.001 190.114 125.482L344.315 36.8891C348.718 34.3605 354.136 34.371 358.529 36.9166C362.922 39.4623 365.625 44.1569 365.621 49.2343V282.969C365.623 288.058 362.906 292.76 358.495 295.3L277.739 341.808C273.324 344.353 270.608 349.066 270.62 354.162C270.632 359.259 273.369 363.959 277.796 366.484L322.341 391.843C326.722 394.337 332.094 394.326 336.464 391.814L431.543 337.214ZM440.887 127.544C440.891 132.665 443.647 137.388 448.103 139.91C452.56 142.433 458.028 142.365 462.42 139.733L505.088 114.132C509.372 111.565 511.996 106.938 512 101.943V49.7748C511.991 44.6568 509.233 39.9384 504.777 37.4195C500.322 34.9006 494.857 34.9696 490.467 37.6002L447.799 63.2009C443.515 65.7683 440.891 70.3949 440.887 75.3897V127.558V127.544Z" fill="#007FFF"/>
</svg>
